#tb 0: 1/25
0,          0,          0,        1,  3686400, 0x97c36ae3
0,          1,          1,        1,  3686400, 0x6a0aa629
0,          2,          2,        1,  3686400, 0xc658d722
0,          3,          3,        1,  3686400, 0x713bc774
0,          4,          4,        1,  3686400, 0x8d0b3afe
0,          5,          5,        1,  3686400, 0x62bf24cd
0,          6,          6,        1,  3686400, 0x77e80436
0,          7,          7,        1,  3686400, 0x4f258e07
0,          8,          8,        1,  3686400, 0x8426bc53
0,          9,          9,        1,  3686400, 0xd33b58c8
